<?xml version="1.0" encoding="iso-8859-1"?>
<!-- Generator: Adobe Illustrator 18.0.0, SVG Export Plug-In . SVG Version: 6.00 Build 0)  -->
<!DOCTYPE svg PUBLIC "-//W3C//DTD SVG 1.1//EN" "http://www.w3.org/Graphics/SVG/1.1/DTD/svg11.dtd">
<svg version="1.1" id="Capa_1" xmlns="http://www.w3.org/2000/svg" xmlns:xlink="http://www.w3.org/1999/xlink" x="0px" y="0px"
	 viewBox="0 0 297 297" style="enable-background:new 0 0 297 297;" xml:space="preserve">
<g>
	<path d="M278.074,0c-5.421,0-9.816,4.395-9.816,9.816v95.462H214.57c3.272-8.259,4.971-17.097,4.971-26.139
		c0-39.172-31.869-71.041-71.041-71.041S77.46,39.967,77.46,79.139c0,9.042,1.699,17.88,4.971,26.139H72.016
		c-5.421,0-9.816,4.395-9.816,9.816v38.242c0,1.074,0.179,2.105,0.497,3.072c0.004,0.011,0.003,0.021,0.007,0.032l11.946,35.838
		c4.426,13.28,6.671,27.112,6.671,41.113v53.793c0,3.402,1.762,6.562,4.656,8.35c1.576,0.974,3.366,1.466,5.16,1.466
		c1.5,0,3.004-0.344,4.389-1.036l52.974-26.487l52.974,26.487c1.385,0.693,2.888,1.036,4.389,1.036c1.795,0,3.584-0.492,5.16-1.466
		c2.894-1.789,4.656-4.948,4.656-8.35v-53.793c0-14,2.245-27.833,6.671-41.113l11.946-35.838c0.003-0.009,0.002-0.018,0.005-0.027
		c0.32-0.969,0.499-2.001,0.499-3.077v-28.426h33.456v160.249c0,5.421,4.395,9.816,9.816,9.816s9.816-4.395,9.816-9.816V9.816
		C287.89,4.395,283.495,0,278.074,0z M160.794,86.501c0.576,5.841,1.891,11.613,3.979,17.141h-8.91V86.501H160.794z
		 M193.705,103.642h-12.833c-2.749-5.347-4.466-11.169-5.193-17.141h23.686C198.503,92.512,196.607,98.305,193.705,103.642z
		 M155.863,71.777V28.266c7.251,1.045,14.014,3.61,19.962,7.359c-8.394,10.313-13.477,23.03-14.933,36.152H155.863z M141.138,71.777
		h-5.149c-1.461-13.089-6.501-25.798-14.852-36.128c5.958-3.762,12.734-6.336,20.001-7.383V71.777z M136.113,86.501h5.025v17.141
		h-8.932C134.264,98.123,135.552,92.351,136.113,86.501z M116.133,103.642h-12.837c-2.902-5.337-4.798-11.13-5.66-17.141h23.605
		C120.532,92.481,118.836,98.303,116.133,103.642z M130.619,195.86l-30.98,17.768c-1.244-9.346-3.366-18.563-6.365-27.558
		l-5.323-15.969L130.619,195.86z M114.426,163.152h73.222l-37.55,21.536L114.426,163.152z M149.844,207.467l35.687,21.545
		L148.5,247.527l-36.599-18.299L149.844,207.467z M203.727,186.07c-2.959,8.875-5.065,17.965-6.315,27.182l-28.088-16.957
		l38.321-21.978L203.727,186.07z M199.373,71.777h-23.533c1.362-9.674,5.168-19.011,11.209-26.595
		C193.507,52.504,197.917,61.667,199.373,71.777z M109.921,45.216c6.001,7.595,9.779,16.915,11.138,26.56H97.627
		C99.082,61.682,103.48,52.533,109.921,45.216z M81.832,124.911h133.337v18.609H81.832V124.911z M100.953,271.301v-25.597
		l25.597,12.799L100.953,271.301z M170.45,258.502l25.597-12.799v25.597L170.45,258.502z"/>
	<path d="M24.397,26.066c18.689-12.543,36.629-0.693,37.519-0.09c4.431,3.082,10.523,2.005,13.629-2.413
		c3.119-4.435,2.053-10.558-2.38-13.676C71.97,9.044,43.579-10.452,13.457,9.763c-4.502,3.021-5.702,9.119-2.681,13.621
		c1.894,2.823,4.998,4.347,8.16,4.347C20.817,27.732,22.719,27.192,24.397,26.066z"/>
	<path d="M67.179,50.393c2.312-3.287,1.522-7.825-1.764-10.136c-0.886-0.624-21.928-15.073-44.252-0.091
		c-3.336,2.239-4.226,6.759-1.987,10.095c1.404,2.092,3.704,3.222,6.048,3.222c1.394,0,2.804-0.4,4.048-1.235
		c13.851-9.297,27.148-0.514,27.807-0.067C60.361,54.465,64.876,53.667,67.179,50.393z"/>
</g>
<g>
</g>
<g>
</g>
<g>
</g>
<g>
</g>
<g>
</g>
<g>
</g>
<g>
</g>
<g>
</g>
<g>
</g>
<g>
</g>
<g>
</g>
<g>
</g>
<g>
</g>
<g>
</g>
<g>
</g>
</svg>
