<?xml version="1.0" encoding="iso-8859-1"?>
<!-- Generator: Adobe Illustrator 19.1.0, SVG Export Plug-In . SVG Version: 6.00 Build 0)  -->
<svg version="1.1" id="Capa_1" xmlns="http://www.w3.org/2000/svg" xmlns:xlink="http://www.w3.org/1999/xlink" x="0px" y="0px"
	 viewBox="0 0 487.565 487.565" style="enable-background:new 0 0 487.565 487.565;" xml:space="preserve">
<g>
	<g>
		<path d="M115.171,183.665c4,25.7,23.7,58.3,56.2,69.7c13.3,4.7,28,4.7,41.3-0.1c32-11.5,52.4-44,56.4-69.6c4.3-0.3,10-6.4,16.1-28
			c8.3-29.5-0.5-33.9-8-33.2c1.4-4.1,2.5-8.1,3.2-12.1c12.7-76.4-24.9-79.1-24.9-79.1s-6.2-12-22.7-21.1c-11-6.5-26.3-11.6-46.5-9.8
			c-6.5,0.3-12.7,1.6-18.5,3.5l0,0c-7.4,2.5-14.2,6.2-20.4,10.4c-7.6,4.8-14.7,10.6-21,17.3c-10,10.2-18.8,23.3-22.7,39.8
			c-3.2,12.3-2.5,25.1,0.2,38.8l0,0c0.7,4,1.8,8.1,3.2,12.1c-7.5-0.7-16.4,3.6-8,33.2
			C105.171,177.265,110.871,183.365,115.171,183.665z"/>
		<path d="M192.971,281.065L192.971,281.065h-0.1h-0.1h-0.1h-0.1l0,0c-6.6,0-44.8,2.4-9.3,52l-1.5,4.3c3.4-0.9,6.9-1.4,10.5-1.4
			c4,0,8,0.6,11.7,1.7l-1.6-4.7C237.771,283.565,199.571,281.165,192.971,281.065z"/>
		<path d="M225.471,352.665l11.5,11.5l45.6,45.6l32.6-32.6l13-13l5.3-5.3l34.4-34.4c-6.3-17.2-17.8-29.2-39.2-37
			c-44.8-17.1-71.6-34.6-71.6-34.6L225.471,352.665z"/>
		<path d="M128.571,252.965c0,0-26.8,17.5-71.6,34.6c-49.3,17.9-46.3,58.5-47.3,134.6h79.8l70.4-70.4L128.571,252.965z"/>
		<path d="M341.171,228.965c6.9,3.3,14.3,5.1,21.8,6.3c5.9,0.9,6.1,1.2,6.2,7.3c0,2.8,0,5.6,0.1,8.3c0,3.5,1.7,5.5,5.3,5.6
			c4.1,0.1,8.2,0.1,12.3,0c3.3-0.1,5.1-1.9,5.1-5.3c0-3.8,0.2-7.6,0-11.4c-0.2-3.9,1.5-5.8,5.2-6.8c8.5-2.3,15.8-6.9,21.5-13.8
			c15.5-18.9,9.6-46.6-12.5-58.8c-6.9-3.8-14.3-6.7-21.6-9.8c-4.2-1.7-8.3-3.8-11.8-6.6c-7-5.6-5.7-14.7,2.6-18.3
			c2.3-1,4.8-1.3,7.3-1.5c9.5-0.5,18.6,1.2,27.2,5.4c4.3,2.1,5.7,1.4,7.2-3c1.5-4.7,2.8-9.5,4.2-14.3c0.9-3.2-0.2-5.3-3.3-6.7
			c-5.5-2.4-11.2-4.2-17.2-5.1c-7.8-1.2-7.8-1.3-7.8-9.1c0-11.1,0-11.1-11.1-11c-1.6,0-3.2,0-4.8,0c-5.2,0.2-6.1,1-6.2,6.3
			c-0.1,2.3,0,4.7,0,7c0,6.9-0.1,6.8-6.7,9.2c-16,5.8-25.9,16.7-27,34.2c-0.9,15.5,7.1,25.9,19.8,33.5c7.8,4.7,16.5,7.5,24.8,11.1
			c3.2,1.4,6.3,3.1,9,5.3c8,6.6,6.5,17.6-3,21.7c-5.1,2.2-10.4,2.8-15.9,2.1c-8.5-1.1-16.6-3.3-24.2-7.3c-4.5-2.3-5.8-1.7-7.3,3.1
			c-1.3,4.2-2.5,8.4-3.6,12.6C335.171,224.965,335.671,226.265,341.171,228.965z"/>
		<path d="M469.371,275.265c-0.3,0-0.6,0-1,0c-21.4,1-42.8,2-64.1,3c-3.3,0.2-6.6,0.3-8.4,4.3s0.3,6.2,2.5,8.5
			c6.6,6.6,13,13.2,19.7,19.7l-7.3,7.3l-59.2,59.2l-5.3,5.3l-13,13l-50.9,50.9l-3-3l-60.9-60.9l-13-13l-3.5-3.5
			c-2.8-2.8-6.4-4.1-10-4.1s-7.2,1.4-10,4.1l-3.5,3.5l-73.9,73.9c-5.5,5.5-5.5,14.4,0,20l3.5,3.5c2.8,2.8,6.4,4.1,10,4.1
			s7.2-1.4,10-4.1l63.9-63.9l3,3l60.9,60.9l13,13l3.5,3.5c2.8,2.8,6.4,4.1,10,4.1s7.2-1.4,10-4.1l3.5-3.5l60.9-60.9l13-13l5.3-5.3
			l59.2-59.2l7.2-7.2l19.3,19.2c1.8,1.8,3.6,3.7,6.1,3.7c0.9,0,2-0.3,3.2-0.9c3.9-2.1,4.7-5.5,4.9-9.3c0.9-20.9,1.9-41.7,2.9-62.6
			C478.171,278.065,475.571,275.265,469.371,275.265z"/>
	</g>
</g>
<g>
</g>
<g>
</g>
<g>
</g>
<g>
</g>
<g>
</g>
<g>
</g>
<g>
</g>
<g>
</g>
<g>
</g>
<g>
</g>
<g>
</g>
<g>
</g>
<g>
</g>
<g>
</g>
<g>
</g>
</svg>
